<mxfile host="app.diagrams.net" modified="2021-04-14T08:32:33.514Z" agent="5.0 (Windows NT 10.0; Win64; x64) AppleWebKit/537.36 (KHTML, like Gecko) Chrome/89.0.4389.114 Safari/537.36 Edg/89.0.774.75" etag="m6vMz_1Lb1mvNaE8nNqf" version="14.1.1" type="github">
  <diagram id="KVfuMFA7pPiagvALqJgJ" name="Page-1">
    <mxGraphModel dx="1117" dy="614" grid="1" gridSize="10" guides="1" tooltips="1" connect="1" arrows="1" fold="1" page="1" pageScale="1" pageWidth="827" pageHeight="1169" math="0" shadow="0">
      <root>
        <mxCell id="0" />
        <mxCell id="1" parent="0" />
        <mxCell id="shNPKbehMH88L3K0Jvu3-2" value="" style="edgeStyle=orthogonalEdgeStyle;rounded=0;orthogonalLoop=1;jettySize=auto;html=1;" edge="1" parent="1" source="PIJiqKiiIkrPCF_YOZU--1" target="shNPKbehMH88L3K0Jvu3-1">
          <mxGeometry relative="1" as="geometry" />
        </mxCell>
        <mxCell id="PIJiqKiiIkrPCF_YOZU--1" value="客户在APP发起退款" style="rounded=0;whiteSpace=wrap;html=1;" parent="1" vertex="1">
          <mxGeometry x="50" y="190" width="120" height="60" as="geometry" />
        </mxCell>
        <mxCell id="shNPKbehMH88L3K0Jvu3-4" value="" style="edgeStyle=orthogonalEdgeStyle;rounded=0;orthogonalLoop=1;jettySize=auto;html=1;" edge="1" parent="1" source="shNPKbehMH88L3K0Jvu3-1" target="shNPKbehMH88L3K0Jvu3-3">
          <mxGeometry relative="1" as="geometry" />
        </mxCell>
        <mxCell id="shNPKbehMH88L3K0Jvu3-1" value="售后系统" style="rounded=0;whiteSpace=wrap;html=1;" vertex="1" parent="1">
          <mxGeometry x="250" y="190" width="120" height="60" as="geometry" />
        </mxCell>
        <mxCell id="shNPKbehMH88L3K0Jvu3-6" value="" style="edgeStyle=orthogonalEdgeStyle;rounded=0;orthogonalLoop=1;jettySize=auto;html=1;" edge="1" parent="1" source="shNPKbehMH88L3K0Jvu3-3" target="shNPKbehMH88L3K0Jvu3-5">
          <mxGeometry relative="1" as="geometry" />
        </mxCell>
        <mxCell id="shNPKbehMH88L3K0Jvu3-3" value="备件库" style="whiteSpace=wrap;html=1;rounded=0;" vertex="1" parent="1">
          <mxGeometry x="450" y="190" width="120" height="60" as="geometry" />
        </mxCell>
        <mxCell id="shNPKbehMH88L3K0Jvu3-8" value="" style="edgeStyle=orthogonalEdgeStyle;rounded=0;orthogonalLoop=1;jettySize=auto;html=1;" edge="1" parent="1" source="shNPKbehMH88L3K0Jvu3-5" target="shNPKbehMH88L3K0Jvu3-7">
          <mxGeometry relative="1" as="geometry" />
        </mxCell>
        <mxCell id="shNPKbehMH88L3K0Jvu3-5" value="退款系统" style="whiteSpace=wrap;html=1;rounded=0;" vertex="1" parent="1">
          <mxGeometry x="730" y="190" width="120" height="60" as="geometry" />
        </mxCell>
        <mxCell id="shNPKbehMH88L3K0Jvu3-7" value="EBS" style="whiteSpace=wrap;html=1;rounded=0;" vertex="1" parent="1">
          <mxGeometry x="940" y="190" width="120" height="60" as="geometry" />
        </mxCell>
        <mxCell id="shNPKbehMH88L3K0Jvu3-9" value="" style="endArrow=classic;html=1;exitX=0.5;exitY=1;exitDx=0;exitDy=0;entryX=0.5;entryY=1;entryDx=0;entryDy=0;" edge="1" parent="1" source="shNPKbehMH88L3K0Jvu3-1" target="shNPKbehMH88L3K0Jvu3-3">
          <mxGeometry width="50" height="50" relative="1" as="geometry">
            <mxPoint x="370" y="250" as="sourcePoint" />
            <mxPoint x="420" y="200" as="targetPoint" />
            <Array as="points">
              <mxPoint x="310" y="310" />
              <mxPoint x="370" y="310" />
              <mxPoint x="510" y="310" />
            </Array>
          </mxGeometry>
        </mxCell>
        <mxCell id="shNPKbehMH88L3K0Jvu3-10" value="客户退回物品，由相关人员检查是否影响二次销售" style="edgeLabel;html=1;align=center;verticalAlign=middle;resizable=0;points=[];" vertex="1" connectable="0" parent="shNPKbehMH88L3K0Jvu3-9">
          <mxGeometry x="-0.3706" y="1" relative="1" as="geometry">
            <mxPoint x="66" y="21" as="offset" />
          </mxGeometry>
        </mxCell>
        <mxCell id="shNPKbehMH88L3K0Jvu3-11" value="将物品检查状态回传售后系统" style="endArrow=classic;html=1;exitX=0.5;exitY=0;exitDx=0;exitDy=0;entryX=0.5;entryY=0;entryDx=0;entryDy=0;" edge="1" parent="1" source="shNPKbehMH88L3K0Jvu3-3" target="shNPKbehMH88L3K0Jvu3-1">
          <mxGeometry y="-20" width="50" height="50" relative="1" as="geometry">
            <mxPoint x="370" y="240" as="sourcePoint" />
            <mxPoint x="420" y="190" as="targetPoint" />
            <Array as="points">
              <mxPoint x="510" y="160" />
              <mxPoint x="310" y="160" />
            </Array>
            <mxPoint as="offset" />
          </mxGeometry>
        </mxCell>
        <mxCell id="shNPKbehMH88L3K0Jvu3-12" value="物品完好，传到退款系统" style="text;html=1;align=center;verticalAlign=middle;resizable=0;points=[];autosize=1;" vertex="1" parent="1">
          <mxGeometry x="570" y="200" width="150" height="20" as="geometry" />
        </mxCell>
        <mxCell id="shNPKbehMH88L3K0Jvu3-13" value="售后完结状态" style="text;html=1;align=center;verticalAlign=middle;resizable=0;points=[];autosize=1;" vertex="1" parent="1">
          <mxGeometry x="850" y="200" width="90" height="20" as="geometry" />
        </mxCell>
        <mxCell id="shNPKbehMH88L3K0Jvu3-14" value="" style="endArrow=classic;html=1;exitX=0.5;exitY=0;exitDx=0;exitDy=0;entryX=0.5;entryY=0;entryDx=0;entryDy=0;" edge="1" parent="1" source="shNPKbehMH88L3K0Jvu3-5" target="shNPKbehMH88L3K0Jvu3-1">
          <mxGeometry width="50" height="50" relative="1" as="geometry">
            <mxPoint x="520" y="240" as="sourcePoint" />
            <mxPoint x="570" y="190" as="targetPoint" />
            <Array as="points">
              <mxPoint x="790" y="90" />
              <mxPoint x="580" y="90" />
              <mxPoint x="310" y="90" />
            </Array>
          </mxGeometry>
        </mxCell>
        <mxCell id="shNPKbehMH88L3K0Jvu3-15" value="将售后完结状态回传售后系统" style="edgeLabel;html=1;align=center;verticalAlign=middle;resizable=0;points=[];" vertex="1" connectable="0" parent="shNPKbehMH88L3K0Jvu3-14">
          <mxGeometry x="-0.1619" y="-4" relative="1" as="geometry">
            <mxPoint y="-6" as="offset" />
          </mxGeometry>
        </mxCell>
      </root>
    </mxGraphModel>
  </diagram>
</mxfile>
